<svg width="16" height="16" viewBox="0 0 16 16" fill="none" xmlns="http://www.w3.org/2000/svg">
<path d="M8 1.33333C10.1713 1.33333 10.4285 1.3416 11.286 1.38072C12.0788 1.41691 12.5094 1.54938 12.796 1.66071C13.1755 1.80823 13.4464 1.98448 13.731 2.26902C14.0155 2.55357 14.1918 2.82449 14.3393 3.20403C14.4506 3.49061 14.5831 3.92119 14.6193 4.714C14.6584 5.57151 14.6667 5.82868 14.6667 8C14.6667 10.1713 14.6584 10.4285 14.6193 11.286C14.5831 12.0788 14.4506 12.5094 14.3393 12.796C14.1918 13.1755 14.0155 13.4464 13.731 13.731C13.4464 14.0155 13.1755 14.1918 12.796 14.3393C12.5094 14.4506 12.0788 14.5831 11.286 14.6193C10.4286 14.6584 10.1714 14.6667 8 14.6667C5.82855 14.6667 5.57138 14.6584 4.71404 14.6193C3.92119 14.5831 3.49061 14.4506 3.20406 14.3393C2.82449 14.1918 2.55357 14.0155 2.26902 13.731C1.98448 13.4464 1.80823 13.1755 1.66075 12.796C1.54938 12.5094 1.41691 12.0788 1.38072 11.286C1.3416 10.4285 1.33333 10.1713 1.33333 8C1.33333 5.82868 1.3416 5.57151 1.38072 4.71404C1.41691 3.92119 1.54938 3.49061 1.66075 3.20403C1.80823 2.82449 1.98448 2.55357 2.26902 2.26902C2.55357 1.98448 2.82449 1.80823 3.20406 1.66071C3.49061 1.54938 3.92119 1.41691 4.714 1.38072C5.57151 1.3416 5.82868 1.33333 8 1.33333ZM7.99998 0C5.8273 0 5.5549 0.00920925 4.70161 0.0481422C3.85007 0.0870116 3.26856 0.222229 2.75966 0.420006C2.23359 0.624451 1.78745 0.897998 1.34271 1.34274C0.897966 1.78748 0.624419 2.23363 0.419974 2.7597C0.222197 3.26859 0.0869798 3.8501 0.0481104 4.70164C0.0091775 5.5549 0 5.82733 0 8.00002C0 10.1727 0.0091775 10.4451 0.0481104 11.2984C0.0869798 12.1499 0.222197 12.7314 0.419974 13.2403C0.624419 13.7664 0.897966 14.2125 1.34271 14.6573C1.78745 15.102 2.23359 15.3756 2.75966 15.58C3.26856 15.7778 3.85007 15.913 4.70161 15.9519C5.5549 15.9908 5.8273 16 7.99998 16C10.1727 16 10.4451 15.9908 11.2984 15.9519C12.1499 15.913 12.7314 15.7778 13.2403 15.58C13.7664 15.3756 14.2125 15.102 14.6573 14.6573C15.102 14.2125 15.3755 13.7664 15.58 13.2403C15.7778 12.7314 15.913 12.1499 15.9519 11.2984C15.9908 10.4451 16 10.1727 16 8.00002C16 5.82733 15.9908 5.5549 15.9519 4.70164C15.913 3.8501 15.7778 3.26859 15.58 2.7597C15.3755 2.23363 15.102 1.78748 14.6573 1.34274C14.2125 0.897998 13.7664 0.624451 13.2403 0.420006C12.7314 0.222229 12.1499 0.0870116 11.2984 0.0481422C10.4451 0.00920925 10.1727 0 7.99998 0ZM8 4C5.79087 4 4 5.79087 4 8C4 10.2091 5.79087 12 8 12C10.2091 12 12 10.2091 12 8C12 5.79087 10.2091 4 8 4ZM8 10.6667C6.52726 10.6667 5.33333 9.47274 5.33333 8C5.33333 6.52726 6.52726 5.33333 8 5.33333C9.47274 5.33333 10.6667 6.52726 10.6667 8C10.6667 9.47274 9.47274 10.6667 8 10.6667ZM13.3333 3.55554C13.3333 4.04647 12.9354 4.44444 12.4445 4.44444C11.9535 4.44444 11.5556 4.04647 11.5556 3.55554C11.5556 3.06462 11.9535 2.66667 12.4445 2.66667C12.9354 2.66667 13.3333 3.06462 13.3333 3.55554Z" fill="black"/>
</svg>
